<?xml version="1.0" encoding="utf-8"?>
<!-- Generator: Adobe Illustrator 26.0.3, SVG Export Plug-In . SVG Version: 6.00 Build 0)  -->
<svg version="1.0" id="Layer_1" xmlns="http://www.w3.org/2000/svg" xmlns:xlink="http://www.w3.org/1999/xlink" x="0px" y="0px"
	 viewBox="0 0 490 332" style="enable-background:new 0 0 490 332;" xml:space="preserve">
<style type="text/css"> 
	.st0{fill-rule:evenodd;clip-rule:evenodd;fill:#e83c38;}
	.st1{fill:#e83c38;}
	.st2{fill-rule:evenodd;clip-rule:evenodd;fill:#a6d1c9;}
</style>
<g>
	<g>
		<path class="st0" d="M114.2,123.2c-0.8-0.5-1.6-0.9-2.4-1.3s-1.7-0.8-2.5-1.1c-0.3-0.1-0.5-0.2-0.8-0.3c-0.8-0.3-1.5-0.6-2.3-0.8
			c-4.3-1.4-8.8-2.1-13.3-2.1c-23.5-0.1-42.6,18.9-42.6,42.5c0,20.8,14.9,38,34.5,41.8v12.2c25.5-3.8,48.1-24.1,49.8-50.7
			C135.6,147.4,127.6,131.1,114.2,123.2z"/>
		<path class="st1" d="M82.5,216.8v-13C62.4,199,48,180.9,48,160.1c0-24.8,20.2-44.9,44.9-44.9c4.8,0,9.5,0.7,14,2.2
			c0.6,0.2,1.2,0.4,1.8,0.6l0.6,0.2c0.3,0.1,0.5,0.2,0.8,0.3c0.8,0.3,1.6,0.7,2.6,1.2c0.9,0.4,1.7,0.9,2.5,1.4
			c14,8.2,22.6,25.3,21.5,42.4c-1.7,26.3-23.4,48.6-51.8,52.8L82.5,216.8z M93,119.8L93,119.8c-22.3,0-40.4,18.1-40.4,40.3
			c0,19.2,13.7,35.9,32.7,39.6l1.9,0.4v11.4c24.8-5,43.6-24.8,45.1-48.2c1-15.4-6.8-30.8-19.3-38.2l0,0c-0.7-0.4-1.5-0.8-2.2-1.2
			c-0.9-0.4-1.6-0.8-2.3-1.1c-0.3-0.1-0.5-0.2-0.7-0.3l-0.6-0.2c-0.5-0.2-1.1-0.4-1.6-0.6C101.5,120.4,97.3,119.8,93,119.8z"/>
		<path class="st2" d="M84.4,138.5c1.3-0.2,2.6,0.3,3.5,1.3c0.7,0.7,1.1,1.5,1.6,2.4c1.4,3.1,2.2,7.6,0.5,10.1
			c-3.2-0.6-7.3-3.6-8.7-6.7c-0.5-0.9-0.7-2-0.8-2.9C80.5,140.4,82.4,138.7,84.4,138.5z M72,156c0.9,0.7,1.8,1.2,2.7,1.6
			c3.1,1.3,8,1.5,10.7-0.3c-0.7-2.9-4.2-6.2-7.3-7.5c-1.1-0.4-2-0.7-3.2-0.7c-0.3,0-0.5,0-0.7,0C70.6,149.3,69.1,153.7,72,156z
			 M85.3,163.5c-1.7-1.1-5.2-0.7-7.2-0.6c-1.2,0-2.5,0.3-3.6,0.8c-1.1,0.4-2,0.9-2.7,1.6c-2.9,2.5-1,7.2,3.1,6.9
			c1.1,0,2.3-0.3,3.2-0.7C81.2,170.1,84.9,166.4,85.3,163.5z M91,167.9c-3.1,0.7-6.8,4.5-8.1,7.7c-0.4,0.9-0.7,2-0.7,2.9
			c-0.2,3.8,5,5.9,7.2,2.9c0.7-0.9,1.1-1.8,1.5-2.7C92.3,175.8,92.8,170.6,91,167.9z M96.6,152.2c3.1-0.7,6.7-3.8,8.1-6.9
			c0.4-0.9,0.7-2,0.7-2.9c0.1-2.4-1.8-4.1-3.9-4.3c-1.3-0.1-2.6,0.4-3.5,1.4c-0.7,0.9-1.1,1.8-1.5,2.7
			C95.1,145.3,94.6,149.8,96.6,152.2z M105.8,178.7c0-0.9-0.3-2-0.7-2.9c-1.3-3.1-4.6-6.5-7.8-7.1c-1.8,2.5-1.8,7.2-0.5,10.3
			c0.4,0.9,0.9,1.8,1.5,2.5C100.9,184.1,106.1,182.1,105.8,178.7z M115,165c-0.9-0.7-1.8-1.1-2.7-1.5c-1.2-0.5-2.4-0.8-3.6-0.8
			c-2.1,0-5.2,0.1-7,1.2c0.7,2.9,4.1,6.1,7.2,7.4c1.1,0.4,2,0.7,3.2,0.7C116.2,172.2,118.1,167.2,115,165z"/>
	</g>
	<path class="st1" d="M181.9,147.2c-4.9,0-8.8,1.6-11.6,4.9c-2.8,3.3-4.3,7.7-4.3,13.4c0,5.8,1.4,10.4,4.1,13.5
		c2.7,3.2,6.6,4.8,11.7,4.8c3.1,0,6.7-0.6,10.7-1.7v4.5c-3.1,1.2-6.9,1.7-11.4,1.7c-6.6,0-11.6-2-15.2-6s-5.4-9.7-5.4-17
		c0-4.6,0.9-8.6,2.6-12.1s4.2-6.1,7.4-8c3.2-1.9,7.1-2.8,11.5-2.8c4.7,0,8.8,0.9,12.3,2.6l-2.2,4.5
		C188.7,148,185.3,147.2,181.9,147.2z M203.2,154.4v21.7c0,2.7,0.6,4.8,1.9,6.1c1.2,1.3,3.2,2,5.8,2c3.5,0,6.1-1,7.7-2.9
		c1.6-1.9,2.4-5,2.4-9.4v-17.5h5.1v33.4h-4.2l-0.7-4.5h-0.3c-1,1.6-2.5,2.9-4.3,3.8s-3.9,1.3-6.3,1.3c-4.1,0-7.1-1-9.1-2.9
		c-2-1.9-3-5-3-9.3v-21.8H203.2z M247.8,188.4c-4.8,0-8.6-1.5-11.2-4.5c-2.7-3-4-7.2-4-12.6c0-5.6,1.3-9.9,4-13s6.5-4.6,11.5-4.6
		c1.6,0,3.2,0.2,4.8,0.5c1.6,0.3,2.9,0.8,3.8,1.2l-1.6,4.3c-1.1-0.4-2.3-0.8-3.7-1.1c-1.3-0.3-2.5-0.4-3.5-0.4
		c-6.8,0-10.2,4.3-10.2,13c0,4.1,0.8,7.3,2.5,9.5c1.7,2.2,4.1,3.3,7.4,3.3c2.8,0,5.6-0.6,8.6-1.8v4.5
		C254.1,187.9,251.2,188.4,247.8,188.4z M266.9,154.4v21.7c0,2.7,0.6,4.8,1.9,6.1c1.2,1.3,3.2,2,5.8,2c3.5,0,6.1-1,7.7-2.9
		c1.6-1.9,2.4-5,2.4-9.4v-17.5h5.1v33.4h-4.2l-0.7-4.5h-0.3c-1,1.6-2.5,2.9-4.3,3.8s-3.9,1.3-6.3,1.3c-4.1,0-7.1-1-9.1-2.9
		c-2-1.9-3-5-3-9.3v-21.8H266.9z M340.6,187.8v-21.7c0-2.7-0.6-4.7-1.7-6c-1.1-1.3-2.9-2-5.3-2c-3.2,0-5.5,0.9-7,2.7
		s-2.3,4.6-2.3,8.4v18.7h-5.1v-21.8c0-2.7-0.6-4.7-1.7-6c-1.1-1.3-2.9-2-5.3-2c-3.2,0-5.5,1-7,2.9s-2.2,5-2.2,9.4v17.5h-5v-33.5h4.1
		l0.8,4.6h0.2c1-1.6,2.3-2.9,4-3.8c1.7-0.9,3.7-1.4,5.8-1.4c5.2,0,8.6,1.9,10.3,5.7h0.2c1-1.8,2.4-3.1,4.3-4.2c1.9-1,4-1.5,6.5-1.5
		c3.8,0,6.6,1,8.5,2.9c1.9,1.9,2.8,5.1,2.8,9.3v21.8H340.6z M369.2,153.8c4.4,0,7.8,1.5,10.2,4.5c2.4,3,3.6,7.2,3.6,12.7
		s-1.2,9.8-3.7,12.8s-5.9,4.6-10.2,4.6c-2.2,0-4.2-0.4-6-1.2c-1.8-0.8-3.3-2-4.5-3.7h-0.4l-1.1,4.3h-3.6v-47.4h5.1v11.5
		c0,2.6-0.1,4.9-0.2,7h0.2C361.1,155.5,364.6,153.8,369.2,153.8z M368.5,158.1c-3.5,0-6,1-7.5,3s-2.3,5.3-2.3,10
		c0,4.7,0.8,8.1,2.3,10.1c1.6,2,4.1,3,7.5,3c3.1,0,5.4-1.1,7-3.4c1.5-2.3,2.3-5.5,2.3-9.8c0-4.4-0.8-7.6-2.3-9.7
		C374,159.2,371.7,158.1,368.5,158.1z M404.1,188.4c-4.9,0-8.8-1.5-11.7-4.5c-2.9-3-4.3-7.2-4.3-12.5c0-5.4,1.3-9.7,4-12.8
		c2.7-3.1,6.2-4.8,10.7-4.8c4.2,0,7.5,1.4,9.9,4.1c2.4,2.8,3.7,6.4,3.7,10.9v3.2h-23c0.1,3.9,1.1,6.9,3,8.9s4.5,3.1,7.9,3.1
		c3.6,0,7.2-0.8,10.7-2.3v4.5c-1.8,0.8-3.5,1.3-5.1,1.7C408.3,188.3,406.3,188.4,404.1,188.4z M402.7,158c-2.7,0-4.8,0.9-6.4,2.6
		c-1.6,1.7-2.5,4.2-2.8,7.3H411c0-3.2-0.7-5.6-2.1-7.3C407.4,158.9,405.4,158,402.7,158z M438,153.8c1.5,0,2.8,0.1,4,0.4l-0.7,4.7
		c-1.4-0.3-2.6-0.5-3.7-0.5c-2.7,0-5,1.1-6.9,3.3s-2.9,4.9-2.9,8.2v17.9h-5.1v-33.4h4.2l0.6,6.2h0.2c1.2-2.2,2.7-3.9,4.5-5
		C434,154.4,435.9,153.8,438,153.8z"/>
</g>
</svg>
